<svg class="svg-icon" style="width:1em;height:1em;vertical-align:middle;fill:currentColor;overflow:hidden" viewBox="0 0 1024 1024" xmlns="http://www.w3.org/2000/svg"><path d="M511.323 63.621c-246.972 0-447.19 200.207-447.19 447.185S264.35 957.99 511.323 957.99c246.978 0 447.19-200.207 447.19-447.185S758.3 63.62 511.322 63.62zM767.82 394.805 478.605 684.03l-.01.016c-13.332 13.332-33.669 15.411-49.186 6.25a40.938 40.938 0 0 1-8.056-6.25l-.005-.005L254.826 517.52c-15.797-15.808-15.797-41.433 0-57.246 15.808-15.808 41.438-15.808 57.246 0l137.902 137.903 260.612-260.612c15.803-15.803 41.438-15.803 57.24 0 15.802 15.813 15.802 41.437-.006 57.24zm0 0"/></svg>